<svg width="65" height="65" viewBox="0 0 65 65" fill="none" xmlns="http://www.w3.org/2000/svg">
<path d="M61.1433 40.3443C57.3625 36.5635 51.7869 35.6459 47.1338 37.5896V15.1727C47.1338 14.2451 46.7726 13.3731 46.1168 12.7173L34.4177 1.01684C34.1439 0.743161 33.8252 0.519579 33.4795 0.351924C33.4788 0.351543 33.478 0.351163 33.4772 0.350782C33.4614 0.343046 33.4455 0.335184 33.4295 0.327828C33.3992 0.31299 33.3684 0.299167 33.3368 0.286865C32.9048 0.100568 32.4357 0 31.9611 0H3.7755C1.75184 0 0.105347 1.64637 0.105347 3.67015V61.3298C0.105347 63.3536 1.75172 65 3.77537 65H43.4635C45.4013 65 47.0108 63.485 47.1276 61.5509C47.1292 61.5254 47.13 61.4999 47.13 61.4744V61.2115C48.711 61.8726 50.3984 62.204 52.0861 62.204C55.3661 62.204 58.6462 60.9555 61.1433 58.4585C63.5625 56.0392 64.8948 52.8227 64.8948 49.4013C64.8948 45.98 63.5625 42.7635 61.1433 40.3443ZM42.8039 12.9912H34.4234C34.2687 12.9912 34.1428 12.8653 34.1428 12.7106V4.32923L42.8039 12.9912ZM44.5936 61.4291C44.5425 62.0117 44.0519 62.4636 43.4636 62.4636H3.7755C3.15028 62.4636 2.64186 61.9551 2.64186 61.3298V3.67015C2.64186 3.04493 3.15041 2.53639 3.7755 2.53639H31.6065V12.7106C31.6065 14.2639 32.8703 15.5276 34.4236 15.5276H44.5975V39.0095C44.0481 39.4058 43.5231 39.8502 43.029 40.3443C40.6098 42.7636 39.2774 45.9801 39.2774 49.4015C39.2774 52.8228 40.6098 56.0393 43.029 58.4586C43.522 58.9516 44.0457 59.3951 44.5937 59.7906V61.4291H44.5936ZM59.3497 56.665C55.3444 60.6703 48.8276 60.6703 44.8224 56.665C42.8822 54.7248 41.8136 52.1452 41.8136 49.4015C41.8136 46.6577 42.8822 44.078 44.8224 42.1379C46.825 40.1353 49.4555 39.1339 52.0859 39.1339C54.7164 39.1339 57.3469 40.1353 59.3495 42.1379C61.2897 44.0781 62.3583 46.6577 62.3583 49.4015C62.3583 52.1452 61.2899 54.7248 59.3497 56.665Z" fill="#12BEC8"/>
<path d="M9.04181 20.2125H26.7221C27.4224 20.2125 27.9903 19.6447 27.9903 18.9443C27.9903 18.2439 27.4224 17.6761 26.7221 17.6761H9.04181C8.34152 17.6761 7.77362 18.2439 7.77362 18.9443C7.77362 19.6447 8.34139 20.2125 9.04181 20.2125Z" fill="#12BEC8"/>
<path d="M31.1317 40.4932H9.04181C8.34152 40.4932 7.77362 41.0609 7.77362 41.7614C7.77362 42.4618 8.34152 43.0295 9.04181 43.0295H31.1318C31.8321 43.0295 32.4 42.4618 32.4 41.7614C32.4 41.0609 31.8321 40.4932 31.1317 40.4932Z" fill="#12BEC8"/>
<path d="M31.1317 48.0989H9.04181C8.34152 48.0989 7.77362 48.6666 7.77362 49.3671C7.77362 50.0675 8.34152 50.6353 9.04181 50.6353H31.1318C31.8321 50.6353 32.4 50.0675 32.4 49.3671C32.4 48.6666 31.8321 48.0989 31.1317 48.0989Z" fill="#12BEC8"/>
<path d="M38.2626 32.8876H9.04181C8.34152 32.8876 7.77362 33.4553 7.77362 34.1558C7.77362 34.8562 8.34152 35.4239 9.04181 35.4239H38.2626C38.9629 35.4239 39.5308 34.8562 39.5308 34.1558C39.5308 33.4553 38.9629 32.8876 38.2626 32.8876Z" fill="#12BEC8"/>
<path d="M8.91504 27.9003H31.7949C32.4952 27.9003 33.0631 27.3325 33.0631 26.6321C33.0631 25.9317 32.4952 25.3639 31.7949 25.3639H8.91504C8.21475 25.3639 7.64685 25.9317 7.64685 26.6321C7.64685 27.3325 8.21462 27.9003 8.91504 27.9003Z" fill="#12BEC8"/>
<path d="M38.1062 27.9009C38.807 27.9009 39.3751 27.3328 39.3751 26.6321C39.3751 25.9313 38.807 25.3632 38.1062 25.3632C37.4055 25.3632 36.8374 25.9313 36.8374 26.6321C36.8374 27.3328 37.4055 27.9009 38.1062 27.9009Z" fill="#12BEC8"/>
<path d="M56.5706 44.9168C56.0754 44.4216 55.2726 44.4216 54.777 44.9168L52.0859 47.6078L49.4372 44.9592C48.942 44.464 48.139 44.464 47.6436 44.9592C47.1484 45.4544 47.1484 46.2574 47.6436 46.7527L50.2923 49.4013L47.6012 52.0924C47.1059 52.5876 47.1059 53.3907 47.6012 53.8859C47.8488 54.1336 48.1734 54.2573 48.4979 54.2573C48.8224 54.2573 49.147 54.1334 49.3946 53.8859L52.0857 51.1949L54.7344 53.8435C54.982 54.0912 55.3066 54.215 55.6311 54.215C55.9556 54.215 56.2803 54.0911 56.5278 53.8435C57.0231 53.3483 57.0231 52.5453 56.5278 52.0501L53.8792 49.4014L56.5703 46.7104C57.0659 46.2151 57.0659 45.4121 56.5706 44.9168Z" fill="#12BEC8"/>
</svg>
