<svg width="65" height="65" viewBox="0 0 65 65" fill="none" xmlns="http://www.w3.org/2000/svg">
<path d="M53.6381 34.3552C53.1156 34.3552 52.6921 34.7787 52.6921 35.3011C52.6921 35.9634 52.1533 36.5022 51.491 36.5022C50.8288 36.5022 50.2899 35.9634 50.2899 35.3011C50.2899 34.7786 49.8664 34.3552 49.344 34.3552C48.8216 34.3552 48.3981 34.7787 48.3981 35.3011C48.3981 37.0066 49.7857 38.3941 51.491 38.3941C53.1964 38.3941 54.584 37.0065 54.584 35.3011C54.584 34.7784 54.1605 34.3552 53.6381 34.3552Z" fill="white"/>
<path d="M62.5173 34.5097L59.8548 33.6568C59.5138 33.5475 59.2451 33.2753 59.136 32.9286C58.5749 31.1445 57.7281 29.4696 56.6192 27.9502C56.1138 27.2577 55.5518 26.5964 54.9378 25.9669C55.3306 24.2437 55.5442 22.2936 55.5165 20.6088C55.4769 18.1986 54.9952 16.785 54.0441 16.2868C53.5318 16.0182 51.9728 15.2021 43.5346 19.0648C43.3348 19.1562 43.1482 19.2688 42.9754 19.3978C42.4065 19.2449 41.8251 19.1035 41.2401 18.9766C41.1696 18.9612 41.097 18.9476 41.026 18.9326C41.7098 17.4389 42.1091 15.8166 42.1841 14.1418C42.2075 13.6198 41.8034 13.1777 41.2813 13.1545C40.7607 13.1286 40.3173 13.5351 40.294 14.0571C40.1708 16.8109 39.0284 19.4019 37.0777 21.3527C35.9121 22.5183 34.5474 23.3649 33.0929 23.8982C30.5704 23.5442 28.0012 23.5442 25.4787 23.8982C24.0241 23.3649 22.6595 22.5183 21.4939 21.3527C19.4127 19.2715 18.2664 16.5043 18.2664 13.5609C18.2664 10.6173 19.4127 7.85026 21.4939 5.76899C23.5752 3.6876 26.3425 2.54134 29.2858 2.54134C32.2291 2.54134 34.9964 3.6876 37.0777 5.76899C37.914 6.60536 38.6052 7.55979 39.1319 8.60551C39.3669 9.07219 39.9358 9.26008 40.4023 9.02496C40.869 8.7901 41.0568 8.22122 40.8218 7.75467C40.2044 6.52843 39.3948 5.41035 38.4156 4.43103C35.977 1.99239 32.7346 0.649353 29.2859 0.649353C25.8372 0.649353 22.5949 1.99239 20.1562 4.43103C17.7176 6.8698 16.3745 10.1121 16.3745 13.5607C16.3745 17.0094 17.7176 20.2518 20.1562 22.6904C20.8597 23.3939 21.6249 23.9988 22.4344 24.5056C22.4346 24.5056 22.4349 24.5055 22.4352 24.5055C21.847 24.6583 21.2633 24.83 20.686 25.023C20.1905 25.1886 19.9231 25.7245 20.0888 26.2201C20.2544 26.7156 20.7905 26.983 21.2859 26.8174C26.4447 25.0928 32.1271 25.0928 37.286 26.8174C37.3855 26.8507 37.4866 26.8664 37.586 26.8664C37.9817 26.8664 38.3506 26.6161 38.483 26.2201C38.6487 25.7246 38.3814 25.1886 37.8859 25.023C37.3086 24.83 36.7249 24.6582 36.1367 24.5055C36.137 24.5055 36.1372 24.5056 36.1375 24.5056C36.947 23.9988 37.7122 23.3939 38.4156 22.6904C39.038 22.0681 39.5873 21.3885 40.0642 20.6663C40.325 20.717 40.5839 20.77 40.8389 20.8254C41.1786 20.8991 41.5168 20.9784 41.852 21.0615C41.8415 21.1026 41.8307 21.1437 41.8219 21.1854C41.3606 23.3747 41.3905 25.311 41.9109 26.9402C42.3786 28.4046 43.2227 29.591 44.4195 30.4666C45.8301 31.4985 47.533 31.9442 49.0756 31.9442C50.2366 31.9442 51.307 31.6915 52.0931 31.2463C52.9822 30.7427 53.7272 29.6815 54.3169 28.0882C54.5895 28.4064 54.8478 28.7323 55.0913 29.0659C56.0786 30.4185 56.8323 31.9091 57.3315 33.4963C57.6247 34.4285 58.3524 35.1621 59.278 35.4588L61.9404 36.3116C62.6391 36.5354 63.1084 37.1785 63.1084 37.912V42.3268C63.1084 43.0603 62.6391 43.7033 61.9404 43.9272L57.6508 45.3012C56.9645 45.5212 56.3837 45.9928 56.0154 46.6294C54.3301 49.5419 51.6805 51.9521 48.1396 53.7931C47.7306 54.006 47.4472 54.3867 47.3619 54.8379L45.988 62.1127C45.95 62.3132 45.7745 62.4585 45.5705 62.4585H41.1034C40.8993 62.4585 40.7238 62.313 40.6858 62.1127L39.9249 58.0922C39.775 57.3012 39.0331 56.7757 38.2346 56.8967C36.3104 57.1877 34.3276 57.3351 32.3417 57.3351C30.8642 57.3351 29.4056 57.2527 28.0062 57.09C27.2325 57.0011 26.5116 57.5285 26.367 58.2925L25.6439 62.1127C25.6059 62.3132 25.4304 62.4585 25.2263 62.4585H20.7592C20.5552 62.4585 20.3797 62.313 20.3412 62.1096L19.0183 55.2387C18.9332 54.796 18.6551 54.4196 18.2551 54.2059C12.2192 50.9837 9.02891 45.6004 9.02891 38.6383C9.02891 35.1207 9.7985 32.0102 11.3162 29.3929C12.7325 26.9505 14.8011 24.931 17.4644 23.3905C17.9166 23.1288 18.0711 22.5502 17.8096 22.0978C17.5481 21.6456 16.9694 21.4914 16.5171 21.7526C11.3528 24.7401 8.23799 29.349 7.38042 35.2028V35.2027C7.28939 35.1944 7.19824 35.1866 7.10747 35.1772C7.12397 34.5456 7.00972 33.9083 6.76089 33.2898C6.21207 31.9255 5.08473 30.9409 3.8887 30.7813C2.9462 30.6551 2.04928 31.0553 1.42683 31.8777C0.524316 33.0703 0.671455 34.014 0.953672 34.5957C1.43013 35.5775 2.65484 36.2719 4.68724 36.7085C4.63138 36.7921 4.56993 36.8762 4.50265 36.9606C3.3018 38.4667 1.88703 38.7997 0.968398 38.831C0.430625 38.8492 0 39.2809 0 39.8191V39.8237C0 40.3545 0.418818 40.7874 0.949102 40.8116C1.01702 40.8148 1.08799 40.8164 1.16188 40.8164C2.32426 40.8164 4.18983 40.3877 5.98216 38.1403C6.26514 37.7856 6.49568 37.4113 6.67291 37.0246C6.85141 37.0448 7.02292 37.062 7.1872 37.0773C7.1872 37.0769 7.1872 37.0766 7.18732 37.0763C7.15508 37.5889 7.13718 38.109 7.13718 38.6383C7.13718 42.5774 8.07625 46.0896 9.92812 49.0777C11.6356 51.8325 14.0804 54.0882 17.1968 55.7846L18.4829 62.4644C18.6897 63.5572 19.647 64.3504 20.7592 64.3504H25.2263C26.3386 64.3504 27.2959 63.5572 27.5027 62.4644L28.1566 59.0102C29.5144 59.1541 30.9203 59.2269 32.3416 59.2269C34.2916 59.2269 36.2393 59.0911 38.1375 58.823L38.8267 62.4646C39.0336 63.5574 39.991 64.3505 41.1031 64.3505H45.5702C46.6824 64.3505 47.6398 63.5573 47.8467 62.4641L49.1844 55.3813C52.9636 53.3829 55.8121 50.7578 57.6527 47.5768C57.7854 47.3475 57.9897 47.1793 58.2278 47.103L62.5173 45.729C64.0023 45.2531 65 43.8859 65 42.3265V37.9117C65 36.3525 64.0023 34.9853 62.5173 34.5097ZM53.4826 23.2671C53.1185 26.3807 52.1418 29.0442 51.1605 29.6C50.045 30.2318 47.4698 30.3538 45.5363 28.9395C43.6005 27.5234 42.9562 24.977 43.6729 21.5754C43.6729 21.5753 43.6729 21.5753 43.6729 21.5753C43.7449 21.2337 43.9876 20.9381 44.3221 20.785C49.058 18.6172 51.7884 17.9081 52.8027 17.9081C52.9558 17.9081 53.0698 17.9242 53.1458 17.954C53.4504 18.2787 53.8501 20.1247 53.4826 23.2671ZM2.65599 33.7696C2.55811 33.5678 2.78916 33.213 2.93566 33.0192C3.16786 32.7125 3.38178 32.6498 3.54339 32.6498C3.57754 32.6498 3.6094 32.6526 3.6386 32.6565C4.07354 32.7145 4.68292 33.1932 5.00576 33.9956C5.08181 34.1845 5.18058 34.4975 5.20368 34.8877C3.89416 34.6164 2.87676 34.2253 2.65599 33.7696Z" fill="white"/>
<path d="M30.2044 12.4766V9.09151C31.3718 9.17492 31.8054 9.7085 32.2056 9.7085C32.7059 9.7085 32.9394 9.07488 32.9394 8.75801C32.9394 7.94081 31.3384 7.59067 30.2044 7.55728V7.10685C30.2044 6.90677 29.9542 6.72333 29.7041 6.72333C29.4205 6.72333 29.2204 6.90677 29.2204 7.10685V7.59042C27.6362 7.75723 26.0519 8.59106 26.0519 10.6923C26.0519 12.8269 27.7196 13.4272 29.2204 13.9608V17.8797C27.5194 17.7463 27.0692 16.579 26.5189 16.579C26.1019 16.579 25.7518 17.1293 25.7518 17.5296C25.7518 18.3466 27.1526 19.464 29.2204 19.4974V20.0143C29.2204 20.2144 29.4206 20.3978 29.7041 20.3978C29.9543 20.3978 30.2044 20.2144 30.2044 20.0143V19.4473C32.0055 19.1971 33.2395 18.0632 33.2395 16.012C33.2395 13.7441 31.6552 13.0102 30.2044 12.4766ZM29.3205 12.1598C28.4366 11.8263 27.7196 11.4762 27.7196 10.5257C27.7196 9.65848 28.3866 9.24157 29.3205 9.1249V12.1598ZM30.1043 17.8463V14.3277C30.9213 14.6778 31.5717 15.1448 31.5717 16.1953C31.5717 17.1461 31.0047 17.6796 30.1043 17.8463Z" fill="white"/>
</svg>
