<svg width="60" height="60" viewBox="0 0 60 60" fill="none" xmlns="http://www.w3.org/2000/svg">
<path d="M47.4189 37.168C46.1905 35.889 44.7089 35.2052 43.1386 35.2052C41.581 35.2052 40.0868 35.8764 38.8078 37.1554L34.8061 41.1443C34.4769 40.9671 34.1476 40.8024 33.831 40.6378C33.3752 40.4099 32.9446 40.1946 32.5774 39.9667C28.829 37.5859 25.4225 34.4834 22.1554 30.4691C20.5724 28.4683 19.5087 26.784 18.7363 25.0745C19.7747 24.1247 20.7371 23.137 21.6742 22.1872C22.0287 21.8326 22.3833 21.4654 22.7379 21.1108C25.3972 18.4515 25.3972 15.0071 22.7379 12.3478L19.2808 8.89064C18.8882 8.49808 18.483 8.09285 18.1031 7.68762C17.3433 6.90249 16.5455 6.09203 15.7224 5.33222C14.494 4.11654 13.0251 3.4707 11.4801 3.4707C9.93519 3.4707 8.4409 4.11654 7.17456 5.33222C7.1619 5.34489 7.1619 5.34489 7.14924 5.35755L2.84368 9.7011C1.22276 11.322 0.298332 13.2975 0.0957177 15.5896C-0.208204 19.2873 0.880849 22.7318 1.71663 24.9858C3.76811 30.5197 6.83265 35.6484 11.4041 41.1443C16.9507 47.7673 23.6243 52.9973 31.2477 56.6824C34.1603 58.0627 38.048 59.6962 42.3915 59.9748C42.6574 59.9875 42.936 60.0002 43.1893 60.0002C46.1145 60.0002 48.5713 58.9491 50.4961 56.8596C50.5088 56.8343 50.5341 56.8217 50.5467 56.7963C51.2052 55.9985 51.965 55.2767 52.7628 54.5042C53.3074 53.985 53.8646 53.4405 54.4091 52.8707C55.6628 51.5663 56.3213 50.0467 56.3213 48.4891C56.3213 46.9189 55.6501 45.4119 54.3711 44.1456L47.4189 37.168ZM51.9524 50.5026C51.9397 50.5026 51.9397 50.5153 51.9524 50.5026C51.4585 51.0345 50.952 51.5157 50.4074 52.0475C49.5843 52.8327 48.7485 53.6558 47.9634 54.5802C46.6844 55.9479 45.1775 56.5937 43.202 56.5937C43.012 56.5937 42.8094 56.5937 42.6194 56.581C38.8584 56.3404 35.3633 54.8715 32.742 53.6178C25.5745 50.148 19.2808 45.222 14.0508 38.9789C9.73257 33.7742 6.84531 28.9621 4.93314 23.7955C3.75544 20.6423 3.32489 18.1856 3.51484 15.8682C3.64147 14.3866 4.21133 13.1582 5.26239 12.1072L9.58061 7.78893C10.2011 7.20641 10.8596 6.88982 11.5055 6.88982C12.3032 6.88982 12.9491 7.37103 13.3543 7.77626C13.367 7.78893 13.3796 7.80159 13.3923 7.81425C14.1648 8.53607 14.8992 9.28321 15.6717 10.081C16.0643 10.4862 16.4695 10.8915 16.8747 11.3094L20.3318 14.7665C21.6742 16.1088 21.6742 17.3498 20.3318 18.6921C19.9646 19.0594 19.61 19.4266 19.2428 19.7812C18.1791 20.8702 17.166 21.8833 16.0643 22.871C16.0389 22.8964 16.0136 22.909 16.001 22.9344C14.9119 24.0234 15.1145 25.0871 15.3425 25.809C15.3551 25.8469 15.3678 25.8849 15.3805 25.9229C16.2796 28.101 17.5459 30.1525 19.4707 32.5965L19.4834 32.6092C22.9785 36.9148 26.6636 40.2706 30.7285 42.8412C31.2477 43.1705 31.7796 43.4364 32.2861 43.6897C32.742 43.9176 33.1725 44.1329 33.5398 44.3609C33.5904 44.3862 33.6411 44.4242 33.6917 44.4495C34.1223 44.6648 34.5275 44.7661 34.9454 44.7661C35.9965 44.7661 36.655 44.1076 36.8703 43.8923L41.2011 39.5614C41.6317 39.1309 42.3155 38.6117 43.1133 38.6117C43.8984 38.6117 44.5443 39.1055 44.9368 39.5361C44.9495 39.5488 44.9495 39.5488 44.9622 39.5614L51.9397 46.539C53.244 47.8306 53.244 49.1603 51.9524 50.5026Z" fill="black"/>
<path d="M32.4254 14.2722C35.7432 14.8294 38.7571 16.3997 41.1632 18.8057C43.5692 21.2118 45.1268 24.2257 45.6967 27.5435C45.836 28.3793 46.5578 28.9618 47.3809 28.9618C47.4822 28.9618 47.5708 28.9491 47.6722 28.9364C48.6092 28.7845 49.2298 27.898 49.0778 26.961C48.394 22.9467 46.4945 19.2869 43.5945 16.387C40.6946 13.4871 37.0349 11.5876 33.0206 10.9037C32.0835 10.7518 31.2097 11.3723 31.0451 12.2967C30.8805 13.2212 31.4883 14.1203 32.4254 14.2722Z" fill="black"/>
<path d="M59.9303 26.4673C58.8033 19.857 55.6881 13.8418 50.9013 9.05507C46.1145 4.26831 40.0994 1.15311 33.4891 0.0260632C32.5647 -0.138561 31.6909 0.494609 31.5263 1.41904C31.3743 2.35613 31.9948 3.22991 32.9319 3.39453C38.8331 4.39494 44.215 7.19355 48.4953 11.4611C52.7755 15.7414 55.5614 21.1233 56.5619 27.0245C56.7012 27.8602 57.423 28.4428 58.2461 28.4428C58.3474 28.4428 58.436 28.4301 58.5373 28.4174C59.4618 28.2781 60.0949 27.3917 59.9303 26.4673Z" fill="black"/>
</svg>
