<svg width="60" height="60" viewBox="0 0 60 60" fill="none" xmlns="http://www.w3.org/2000/svg">
<path d="M30 0C18.0182 0 8.27028 9.74789 8.27028 21.7296C8.27028 36.5993 27.7163 58.4289 28.5442 59.3509C29.3218 60.217 30.6796 60.2155 31.4558 59.3509C32.2838 58.4289 51.7297 36.5993 51.7297 21.7296C51.7295 9.74789 41.9817 0 30 0ZM30 55.0464C23.4554 47.2724 12.1834 31.935 12.1834 21.7298C12.1834 11.9055 20.1758 3.91312 30 3.91312C39.8242 3.91312 47.8166 11.9055 47.8166 21.7297C47.8165 31.9354 36.5462 47.2699 30 55.0464Z" fill="black"/>
<path d="M30 10.7969C23.9717 10.7969 19.0674 15.7013 19.0674 21.7296C19.0674 27.758 23.9718 32.6624 30 32.6624C36.0283 32.6624 40.9325 27.758 40.9325 21.7296C40.9325 15.7013 36.0283 10.7969 30 10.7969ZM30 28.7493C26.1293 28.7493 22.9805 25.6003 22.9805 21.7296C22.9805 17.8589 26.1294 14.71 30 14.71C33.8706 14.71 37.0195 17.8589 37.0195 21.7296C37.0195 25.6003 33.8706 28.7493 30 28.7493Z" fill="black"/>
</svg>
